<svg version="1.1" xmlns="http://www.w3.org/2000/svg" xmlns:xlink="http://www.w3.org/1999/xlink" width="16" height="16"><g><path fill="#FFF" d="M1 2v8h5v2h.05c.245 1.694 1.688 3 3.45 3s3.205-1.306 3.45-3H13v-2h2V2H1z" />
                        <path fill="#444" d="M5 11H1a.972.972 0 01-.707-.293A.972.972 0 010 10V2a.972.972 0 01.293-.707A.972.972 0 011 1h14a.972.972 0 01.707.293A.972.972 0 0116 2v8a.972.972 0 01-.293.707A.972.972 0 0115 11h-1v-1h1V2H1v8h4.203L5 11z" />
                        <path fill="#01918D" d="M5.203 10c.167-.354.41-.637.73-.848S6.609 8.825 7 8.805V5.5c0-.203.04-.396.121-.578.081-.183.189-.341.324-.477.136-.135.294-.243.477-.324a1.478 1.478 0 011.164-.004c.182.078.341.185.477.32A1.51 1.51 0 0110 5.5v2.212l.977.241c.344.089.684.173 1.02.254s.676.165 1.02.254c.146.036.278.095.398.176.12.081.223.177.309.289s.153.235.203.371c.048.136.073.278.073.43V11.5a4.37 4.37 0 01-.355 1.75c-.237.547-.559 1.023-.965 1.43s-.883.728-1.43.965S10.12 16 9.5 16s-1.203-.118-1.75-.355-1.023-.559-1.43-.965-.728-.883-.965-1.43S5 12.12 5 11.5V11s.026-.351.071-.573.132-.427.132-.427zM13 9.727a.29.29 0 00-.227-.29L10 8.742c0 .099.001.21.004.332.002.122-.008.237-.031.344s-.072.196-.145.27c-.073.073-.182.109-.328.109a.484.484 0 01-.352-.148A.48.48 0 019 9.297V5.5a.479.479 0 00-.145-.355A.479.479 0 008.5 5a.484.484 0 00-.352.148A.48.48 0 008 5.5V11c0 .136-.05.253-.148.352a.487.487 0 01-.352.148.484.484 0 01-.352-.148A.48.48 0 017 11V9.805a1.116 1.116 0 00-1 1.093v.602c0 .484.092.938.277 1.363s.435.794.75 1.109c.315.315.685.565 1.109.75.425.185.88.278 1.364.278s.938-.093 1.363-.277a3.572 3.572 0 001.109-.75c.315-.315.565-.685.75-1.109.185-.426.278-.88.278-1.364V9.727z" /></g></svg>