<svg version="1.1" xmlns="http://www.w3.org/2000/svg" xmlns:xlink="http://www.w3.org/1999/xlink" width="16" height="16"><g><path fill="#01918D" d="M15 2v7H8V2h7m1-1H7v9h9V1z" />
                        <path fill="#FFF" d="M15 2v7H8V2h7" />
                        <path fill="#F9B23F" d="M4.5 4C6.43 4 8 5.57 8 7.5S6.43 11 4.5 11 1 9.43 1 7.5 2.57 4 4.5 4m0-1a4.5 4.5 0 100 9 4.5 4.5 0 000-9z" />
                        <path fill="#FFF" d="M4.5 4C6.43 4 8 5.57 8 7.5S6.43 11 4.5 11 1 9.43 1 7.5 2.57 4 4.5 4" />
                        <path fill="#444" d="M13.883 14c-.631-1.089-3.12-5.411-3.75-6.5-.63 1.089-3.12 5.411-3.75 6.5h7.5zm1.735 1H4.648l5.485-9.5 5.485 9.5z" />
                        <path fill="#FFF" d="M13.883 14c-.631-1.089-3.12-5.411-3.75-6.5-.63 1.089-3.12 5.411-3.75 6.5h7.5z" /></g></svg>