<svg version="1.1" xmlns="http://www.w3.org/2000/svg" xmlns:xlink="http://www.w3.org/1999/xlink" width="16" height="16"><g><circle fill="#FFF" cx="7.5" cy="7.5" r="6.5" />
                        <path fill="#444" d="M7.5.031c.688 0 1.349.089 1.984.266a7.487 7.487 0 015.219 5.219c.177.636.266 1.297.266 1.984s-.089 1.35-.266 1.984a7.487 7.487 0 01-5.219 5.219c-.636.178-1.297.266-1.984.266s-1.349-.088-1.984-.266a7.447 7.447 0 01-3.297-1.922A7.466 7.466 0 015.516.297 7.353 7.353 0 017.5.031zm0 14c.599 0 1.177-.078 1.734-.234s1.078-.376 1.562-.66a6.576 6.576 0 002.34-2.34 6.537 6.537 0 00.895-3.297 6.4 6.4 0 00-.234-1.734 6.54 6.54 0 00-4.562-4.562C8.678 1.048 8.099.969 7.5.969s-1.177.078-1.734.234-1.078.377-1.563.66a6.576 6.576 0 00-2.34 2.34A6.537 6.537 0 00.969 7.5c0 .6.078 1.178.234 1.734a6.56 6.56 0 001.68 2.882A6.54 6.54 0 007.5 14.031zM7.5 3.5c.344 0 .667.066.969.199s.566.312.793.539.406.491.539.793c.133.302.199.625.199.969 0 .312-.05.585-.148.816-.099.232-.223.442-.372.629s-.308.359-.48.512a9.283 9.283 0 00-.48.461 2.45 2.45 0 00-.372.492A1.185 1.185 0 008 9.5v.5H7v-.5c0-.312.05-.584.148-.816.099-.232.223-.442.372-.629s.308-.358.48-.512c.172-.153.332-.307.48-.461.148-.153.272-.316.371-.488S9 6.224 9 6c0-.208-.039-.403-.117-.586a1.52 1.52 0 00-.32-.477 1.51 1.51 0 00-2.126 0A1.493 1.493 0 006 6H5c0-.344.065-.667.195-.969a2.533 2.533 0 011.332-1.332c.305-.133.629-.199.973-.199zM7 11h1v1H7v-1z" /></g></svg>