<svg version="1.1" xmlns="http://www.w3.org/2000/svg" xmlns:xlink="http://www.w3.org/1999/xlink" width="16" height="16"><g><path fill="#01918D" d="M0 0v7h7V0H0zm6 6H1V1h5v5z" />
                        <path fill="#646464" d="M0 8v7h7V8H0zm6 6H1V9h5v5z" />
                        <path fill="#F9B23F" d="M8 0v7h7V0H8zm6 6H9V1h5v5z" />
                        <path fill="#459E45" d="M8 8v7h7V8H8zm6 6H9V9h5v5z" />
                        <path fill="#6CC" d="M6 6H1V1h5v5z" />
                        <path fill="#B2B2B2" d="M6 14H1V9h5v5z" />
                        <path fill="#FAD086" d="M14 6H9V1h5v5z" />
                        <path fill="#84C28A" d="M14 14H9V9h5v5z" /></g></svg>