<svg version="1.1" xmlns="http://www.w3.org/2000/svg" xmlns:xlink="http://www.w3.org/1999/xlink" width="16" height="16"><g><path fill="#FFF" d="M1 13V3h14v10H1z" />
                        <path fill="#444" d="M0 2v12h16V2H0zm1 11V3h14v10H1z" />
                        <path fill="#F9B23F" d="M12.5 6a.48.48 0 01-.352-.148A.48.48 0 0112 5.5c0-.135.049-.252.148-.352A.484.484 0 0112.5 5c.135 0 .252.05.352.148.098.1.148.217.148.352 0 .136-.05.253-.148.352A.483.483 0 0112.5 6z" />
                        <path fill="#01918D" d="M12.711 13l-2.508-2.5L11.5 9.203l3.5 3.508v-1.422l-3.5-3.492-2 2-5-5L1 8.289v1.422l3.5-3.508L11.289 13z" />
                        <path fill="#6CC" d="M1 13V9.711l3.5-3.508L11.289 13zM11.5 9.203l3.5 3.508V13h-2.289l-2.508-2.5z" /></g></svg>