<svg version="1.1" xmlns="http://www.w3.org/2000/svg" xmlns:xlink="http://www.w3.org/1999/xlink" width="16" height="16"><g><path fill="#FFF" d="M3.831 8.543l.197-.196L9.38 3H3v8.878l.831-3.335zM7.652 11.973l-.196.196L4.123 13H13V6.623l-5.348 5.35zM13.438 2a.537.537 0 00-.391.164L5.641 9.57l-.266 1.055 1.055-.266 7.406-7.406a.533.533 0 00.164-.39.539.539 0 00-.168-.398.545.545 0 00-.394-.165z" />
                        <path fill="#444" d="M13 6.623V13H3V3h6.379l1-1H2v12h12V5.623l-1 1z" />
                        <path fill="#01918D" d="M6.945 11.266L4 12l.734-2.945s7.309-7.302 7.426-7.422c.117-.119.238-.227.363-.32s.26-.169.406-.227c.146-.057.315-.086.509-.086.213 0 .414.042.602.125a1.61 1.61 0 01.828.832 1.5 1.5 0 01.125.605 1.47 1.47 0 01-.305.922 2.972 2.972 0 01-.32.359c-.121.116-7.423 7.423-7.423 7.423zM13.438 2a.537.537 0 00-.391.164L5.641 9.57l-.266 1.055 1.055-.266 7.406-7.406a.533.533 0 00.164-.39.539.539 0 00-.168-.398.545.545 0 00-.394-.165z" /></g></svg>