<svg version="1.1" xmlns="http://www.w3.org/2000/svg" xmlns:xlink="http://www.w3.org/1999/xlink" width="16" height="16"><g><path fill="#FFF" d="M15 3.25c0-.072-.023-.133-.07-.18S14.822 3 14.75 3H1.25c-.073 0-.133.023-.18.07S1 3.178 1 3.25v9.5c0 .073.023.133.07.18s.107.07.18.07h13.5c.072 0 .133-.023.18-.07s.07-.107.07-.18v-9.5z" />
                        <path fill="#444" d="M14.75 2c.172 0 .333.033.484.098a1.275 1.275 0 01.668.668c.065.151.098.312.098.484v9.5a1.252 1.252 0 01-.368.882 1.275 1.275 0 01-.398.27 1.193 1.193 0 01-.484.098H1.25c-.172 0-.333-.032-.484-.098a1.22 1.22 0 01-.398-.27A1.252 1.252 0 010 12.75v-9.5c0-.172.032-.333.098-.484a1.275 1.275 0 01.668-.668A1.21 1.21 0 011.25 2h13.5zM15 3.25c0-.072-.023-.133-.07-.18S14.822 3 14.75 3H1.25c-.073 0-.133.023-.18.07S1 3.178 1 3.25v9.5c0 .073.023.133.07.18s.107.07.18.07h13.5c.072 0 .133-.023.18-.07s.07-.107.07-.18v-9.5z" /></g></svg>