<?xml version="1.0" encoding="UTF-8" standalone="no"?>
<!DOCTYPE svg PUBLIC "-//W3C//DTD SVG 1.1//EN"
 "http://www.w3.org/Graphics/SVG/1.1/DTD/svg11.dtd">
<!-- Generated by graphviz version 2.47.1 (20210417.1919)
 -->
<!-- Title: PonyMath Pages: 1 -->
<svg width="242pt" height="260pt"
 viewBox="0.00 0.00 242.00 260.00" xmlns="http://www.w3.org/2000/svg" xmlns:xlink="http://www.w3.org/1999/xlink">
<g id="graph0" class="graph" transform="scale(1 1) rotate(0) translate(4 256)">
<title>PonyMath</title>
<polygon fill="white" stroke="transparent" points="-4,4 -4,-256 238,-256 238,4 -4,4"/>
<!-- MathScreen -->
<g id="node1" class="node">
<title>MathScreen</title>
<polygon fill="none" stroke="black" points="150.5,-252 59.5,-252 59.5,-216 150.5,-216 150.5,-252"/>
<text text-anchor="start" x="72" y="-229.8" font-family="Times New Roman,serif" font-size="14.00">MathScreen</text>
</g>
<!-- EatScreen -->
<g id="node2" class="node">
<title>EatScreen</title>
<polygon fill="none" stroke="black" points="180.5,-180 99.5,-180 99.5,-144 180.5,-144 180.5,-180"/>
<text text-anchor="start" x="112" y="-157.8" font-family="Times New Roman,serif" font-size="14.00">EatScreen</text>
</g>
<!-- MathScreen&#45;&gt;EatScreen -->
<g id="edge1" class="edge">
<title>MathScreen&#45;&gt;EatScreen</title>
<path fill="none" stroke="black" d="M113.65,-215.7C117.64,-207.73 122.45,-198.1 126.87,-189.26"/>
<polygon fill="black" stroke="black" points="130.11,-190.61 131.45,-180.1 123.85,-187.48 130.11,-190.61"/>
</g>
<!-- StartScreen -->
<g id="node3" class="node">
<title>StartScreen</title>
<polygon fill="none" stroke="black" points="115.5,-108 26.5,-108 26.5,-72 115.5,-72 115.5,-108"/>
<text text-anchor="start" x="39" y="-85.8" font-family="Times New Roman,serif" font-size="14.00">StartScreen</text>
</g>
<!-- EatScreen&#45;&gt;StartScreen -->
<g id="edge5" class="edge">
<title>EatScreen&#45;&gt;StartScreen</title>
<path fill="none" stroke="black" d="M122.94,-143.7C114.5,-135.14 104.18,-124.66 94.96,-115.3"/>
<polygon fill="black" stroke="black" points="97.37,-112.77 87.86,-108.1 92.39,-117.68 97.37,-112.77"/>
</g>
<!-- StartScreen&#45;&gt;MathScreen -->
<g id="edge2" class="edge">
<title>StartScreen&#45;&gt;MathScreen</title>
<path fill="none" stroke="black" d="M74.31,-108.14C77.87,-126.12 83.84,-155.16 90,-180 92.13,-188.58 94.67,-197.87 97.06,-206.24"/>
<polygon fill="black" stroke="black" points="93.71,-207.26 99.85,-215.89 100.43,-205.31 93.71,-207.26"/>
</g>
<!-- CoinScreen -->
<g id="node4" class="node">
<title>CoinScreen</title>
<polygon fill="none" stroke="black" points="90,-36 0,-36 0,0 90,0 90,-36"/>
<text text-anchor="start" x="12" y="-13.8" font-family="Times New Roman,serif" font-size="14.00">CoinScreen</text>
</g>
<!-- StartScreen&#45;&gt;CoinScreen -->
<g id="edge3" class="edge">
<title>StartScreen&#45;&gt;CoinScreen</title>
<path fill="none" stroke="black" d="M58.66,-71.7C54.96,-63.9 51.25,-54.51 48.38,-45.83"/>
<polygon fill="black" stroke="black" points="51.69,-44.67 45.46,-36.1 44.99,-46.69 51.69,-44.67"/>
</g>
<!-- TimesMathScreen -->
<g id="node5" class="node">
<title>TimesMathScreen</title>
<polygon fill="none" stroke="black" points="234,-36 108,-36 108,0 234,0 234,-36"/>
<text text-anchor="start" x="120" y="-13.8" font-family="Times New Roman,serif" font-size="14.00">TimesMathScreen</text>
</g>
<!-- StartScreen&#45;&gt;TimesMathScreen -->
<g id="edge4" class="edge">
<title>StartScreen&#45;&gt;TimesMathScreen</title>
<path fill="none" stroke="black" d="M95.46,-71.88C108.3,-62.89 124.2,-51.76 138.09,-42.03"/>
<polygon fill="black" stroke="black" points="140.26,-44.79 146.44,-36.19 136.24,-39.06 140.26,-44.79"/>
</g>
<!-- CoinScreen&#45;&gt;StartScreen -->
<g id="edge6" class="edge">
<title>CoinScreen&#45;&gt;StartScreen</title>
<path fill="none" stroke="black" d="M57.25,-36.1C60.95,-43.88 64.67,-53.26 67.55,-61.95"/>
<polygon fill="black" stroke="black" points="64.25,-63.14 70.49,-71.7 70.95,-61.11 64.25,-63.14"/>
</g>
<!-- TimesMathScreen&#45;&gt;EatScreen -->
<g id="edge7" class="edge">
<title>TimesMathScreen&#45;&gt;EatScreen</title>
<path fill="none" stroke="black" d="M167.25,-36.19C161.93,-60.53 152.16,-105.28 145.88,-134.06"/>
<polygon fill="black" stroke="black" points="142.45,-133.36 143.74,-143.87 149.29,-134.85 142.45,-133.36"/>
</g>
</g>
</svg>
